<svg id="Capa_1" enable-background="new 0 0 512.555 512.555" height="512" viewBox="0 0 512.555 512.555" width="512" xmlns="http://www.w3.org/2000/svg"><g><g><path d="m464.177 97.724h-415.8c-22.57 0-40.88 18.3-40.88 40.88v204.47l47.953 41.013h422.388l26.919-41.013.3-204.47c0-22.58-18.31-40.88-40.88-40.88z" fill="#f9f7f8"/><g><path d="m317.363 469.61v-81.988h-122.171v81.988l-28.474 35.284h179.119z" fill="#baafb9"/><g id="XMLID_198_"><g><path d="m317.363 387.622h-89.631-7.905-24.635v81.988l-28.474 35.285h32.541l21.477-26.613c4.528-5.611 6.998-12.604 6.998-19.814v-14.718c0-9.458 7.667-17.126 17.126-17.126h72.505v-39.002z" fill="#aa9ea9"/><path d="m504.757 343.074-.03 22.81c-.08 22.52-18.36 40.74-40.88 40.74h-415.47c-22.57 0-40.88-18.31-40.88-40.88v-22.67h.59 496.5z" fill="#baafb9"/></g></g><path d="m256.777 263.854c35 0 89.803-13.918 152.122-80.225 22.404-23.836 24.157-60.104 5.293-85.905h-314.83c-18.863 25.802-17.111 62.069 5.293 85.905 62.32 66.307 117.122 80.225 152.122 80.225z" fill="#efedef"/><path d="m394.326 105.017c17.154 18.251 17.154 46.664 0 64.915-29.407 31.288-80.031 73.922-137.549 73.922s-108.142-42.634-137.549-73.922c-17.154-18.251-17.154-46.664 0-64.915 29.407-31.288 80.031-73.922 137.549-73.922s108.142 42.634 137.549 73.922z" fill="#eaf6ff"/><circle cx="256.777" cy="137.474" fill="#b5adb6" r="50.876"/><path d="m241.974 137.474c0-21.704 13.693-40.268 32.867-47.564-5.61-2.135-11.714-3.312-18.064-3.312-28.053 0-50.876 22.823-50.876 50.876s22.823 50.876 50.876 50.876c6.35 0 12.454-1.182 18.064-3.317-19.174-7.295-32.867-25.855-32.867-47.559z" fill="#a79ba7"/></g></g><g><path d="m504.811 309.708c-.004 0-.007 0-.011 0-4.137 0-7.494 3.351-7.5 7.489l-.026 18.375h-412.949c-4.142 0-7.5 3.358-7.5 7.5s3.358 7.5 7.5 7.5h412.927l-.022 15.29c-.066 18.34-15.041 33.261-33.381 33.261h-415.468c-18.406-.001-33.381-14.976-33.381-33.382v-15.169h37.362c4.142 0 7.5-3.358 7.5-7.5s-3.358-7.5-7.5-7.5h-37.362v-196.97c0-18.406 14.975-33.381 33.381-33.381 4.142 0 7.5-3.358 7.5-7.5s-3.358-7.5-7.5-7.5c-26.677-.001-48.381 21.703-48.381 48.38v227.14c0 26.677 21.704 48.381 48.381 48.381h139.311v52.839l-24.559 30.434h-10.567c-4.142 0-7.5 3.358-7.5 7.5s3.358 7.5 7.5 7.5h206.563c4.142 0 7.5-3.358 7.5-7.5s-3.358-7.5-7.5-7.5h-9.708l-24.559-30.434v-52.839h138.988c26.582 0 48.285-21.625 48.381-48.223l.069-48.68c.006-4.143-3.347-7.505-7.489-7.511zm-194.948 152.402h-26.524c-4.142 0-7.5 3.358-7.5 7.5s3.358 7.5 7.5 7.5h30.44l16.369 20.285h-147.74l16.369-20.285h50.808c4.142 0 7.5-3.358 7.5-7.5s-3.358-7.5-7.5-7.5h-46.893v-47.988h107.171z"/><path d="m464.174 90.22h-73.793c-55.258-54.756-102.805-66.625-133.603-66.625-30.799 0-78.345 11.869-133.604 66.625h-35.792c-4.142 0-7.5 3.358-7.5 7.5s3.358 7.5 7.5 7.5h21.98c-15.269 21.008-13.811 50.471 4.402 69.849 59.261 63.05 110.481 76.285 143.014 76.285 32.156 0 65.487-12.458 99.065-37.027 3.343-2.446 4.07-7.139 1.624-10.481-2.446-3.343-7.139-4.07-10.481-1.624-30.954 22.649-61.304 34.133-90.208 34.133-29.573 0-76.495-12.415-132.084-71.559-14.399-15.32-14.399-39.322 0-54.642 1.582-1.684 3.157-3.324 4.725-4.933h45.045c-3.954 10.108-6.062 21.013-6.062 32.254 0 30.249 15.236 58.075 40.755 74.433 1.253.804 2.655 1.187 4.04 1.187 2.47 0 4.89-1.22 6.321-3.454 2.235-3.487 1.221-8.126-2.267-10.361-21.196-13.587-33.85-36.691-33.85-61.805 0-11.401 2.616-22.384 7.447-32.254h17.304c-6.154 9.248-9.751 20.337-9.751 32.254 0 32.189 26.188 58.376 58.376 58.376s58.376-26.188 58.376-58.376c0-11.917-3.597-23.006-9.751-32.254h17.304c4.831 9.87 7.447 20.854 7.447 32.254 0 25.113-12.654 48.218-33.85 61.805-3.487 2.235-4.502 6.874-2.267 10.361 1.432 2.234 3.851 3.454 6.321 3.454 1.385 0 2.787-.384 4.04-1.187 25.52-16.358 40.755-44.184 40.755-74.433 0-11.241-2.108-22.146-6.062-32.254h45.045c1.568 1.609 3.143 3.25 4.725 4.934 14.399 15.32 14.399 39.321 0 54.642-5.795 6.166-11.793 12.095-17.828 17.625-3.054 2.799-3.261 7.543-.463 10.597 2.799 3.053 7.542 3.26 10.597.463 6.309-5.781 12.575-11.976 18.624-18.411 18.213-19.377 19.67-48.841 4.401-69.849h59.981c18.406 0 33.381 14.975 33.381 33.37l-.209 146.644c-.006 4.142 3.347 7.505 7.489 7.511h.011c4.137 0 7.494-3.351 7.5-7.489l.209-146.654c.002-26.68-21.702-48.384-48.379-48.384zm-164.021 47.254c0 23.918-19.458 43.376-43.376 43.376s-43.376-19.458-43.376-43.376c0-12.794 5.571-24.308 14.41-32.254h57.931c8.84 7.947 14.411 19.461 14.411 32.254zm4.245-74.432c-3.489-2.236-8.127-1.22-10.361 2.267-2.235 3.487-1.221 8.126 2.267 10.361 6.34 4.064 11.908 8.984 16.61 14.55h-21.919c-9.622-6.987-21.442-11.122-34.216-11.122s-24.594 4.135-34.216 11.122h-21.919c4.701-5.566 10.27-10.486 16.61-14.55 3.487-2.235 4.502-6.874 2.267-10.361s-6.874-4.503-10.361-2.267c-11.123 7.13-20.291 16.44-27.097 27.178h-37.079c46.684-42.1 85.894-51.625 111.796-51.625s65.112 9.525 111.796 51.625h-37.078c-6.809-10.738-15.977-20.048-27.1-27.178z"/><path d="m263.777 376.326v-6.275c0-4.142-3.358-7.5-7.5-7.5s-7.5 3.358-7.5 7.5v6.275c0 4.142 3.358 7.5 7.5 7.5s7.5-3.358 7.5-7.5z"/><path d="m345.837 15.16h33.254v33.254c0 4.142 3.358 7.5 7.5 7.5s7.5-3.358 7.5-7.5v-40.754c0-4.142-3.358-7.5-7.5-7.5h-40.754c-4.142 0-7.5 3.358-7.5 7.5s3.358 7.5 7.5 7.5z"/><path d="m386.591 274.789c4.142 0 7.5-3.358 7.5-7.5v-40.754c0-4.142-3.358-7.5-7.5-7.5s-7.5 3.358-7.5 7.5v33.254h-33.254c-4.142 0-7.5 3.358-7.5 7.5s3.358 7.5 7.5 7.5z"/><path d="m126.963 219.034c-4.142 0-7.5 3.358-7.5 7.5v40.754c0 4.142 3.358 7.5 7.5 7.5h40.754c4.142 0 7.5-3.358 7.5-7.5s-3.358-7.5-7.5-7.5h-33.254v-33.254c0-4.142-3.358-7.5-7.5-7.5z"/><path d="m126.963 55.915c4.142 0 7.5-3.358 7.5-7.5v-33.255h33.254c4.142 0 7.5-3.358 7.5-7.5s-3.358-7.5-7.5-7.5h-40.754c-4.142 0-7.5 3.358-7.5 7.5v40.754c0 4.143 3.358 7.501 7.5 7.501z"/></g></g></svg>